HIERARCHY
ROOT Hips
{
	OFFSET -29.453722 125.264961 -0.138695
	CHANNELS 6 Xposition Yposition Zposition Xrotation Yrotation Zrotation
	JOINT Chest
	{
		OFFSET 0.589678 13.201759 3.394122
		CHANNELS 3 Xrotation Yrotation Zrotation
		JOINT Chest2
		{
			OFFSET 3.897322 20.421860 5.179279
			CHANNELS 3 Xrotation Yrotation Zrotation
			JOINT Chest3
			{
				OFFSET 6.495590 13.439468 -0.090067
				CHANNELS 3 Xrotation Yrotation Zrotation
				JOINT Neck
				{
					OFFSET 7.623661 15.259781 2.763100
					CHANNELS 3 Xrotation Yrotation Zrotation
					JOINT Head
					{
						OFFSET 8.153633 6.448563 1.327440
						CHANNELS 3 Xrotation Yrotation Zrotation
						End Site
						{
							OFFSET 8.138179 6.480804 1.263664
						}
					}
				}
				JOINT LeftCollar
				{
					OFFSET 9.920180 9.322678 4.059816
					CHANNELS 3 Xrotation Yrotation Zrotation
					JOINT LeftUpArm
					{
						OFFSET 14.296846 -2.830002 -9.802582
						CHANNELS 3 Xrotation Yrotation Zrotation
						JOINT LeftLowArm
						{
							OFFSET 31.705685 7.795395 8.585388
							CHANNELS 3 Xrotation Yrotation Zrotation
							JOINT LeftHand
							{
								OFFSET 22.900196 15.079971 12.211544
								CHANNELS 3 Xrotation Yrotation Zrotation
								End Site
								{
									OFFSET 5.004990 3.295792 2.668911
								}
							}
						}
					}
				}
				JOINT RightCollar
				{
					OFFSET 2.426506 12.759903 5.753755
					CHANNELS 3 Xrotation Yrotation Zrotation
					JOINT RightUpArm
					{
						OFFSET -6.350084 16.323257 -1.312984
						CHANNELS 3 Xrotation Yrotation Zrotation
						JOINT RightLowArm
						{
							OFFSET 11.435492 27.063293 16.629539
							CHANNELS 3 Xrotation Yrotation Zrotation
							JOINT RightHand
							{
								OFFSET 15.376131 23.500580 10.594893
								CHANNELS 3 Xrotation Yrotation Zrotation
								End Site
								{
									OFFSET 3.360596 5.136307 2.315598
								}
							}
						}
					}
				}
			}
		}
	}
	JOINT LeftUpLeg
	{
		OFFSET 9.964291 -0.659874 0.834644
		CHANNELS 3 Xrotation Yrotation Zrotation
		JOINT LeftLowLeg
		{
			OFFSET 8.433626 -46.546707 2.503314
			CHANNELS 3 Xrotation Yrotation Zrotation
			JOINT LeftFoot
			{
				OFFSET 7.020066 -40.910950 -16.660732
				CHANNELS 3 Xrotation Yrotation Zrotation
				JOINT LeftToe
				{
					OFFSET -0.082608 -21.412340 10.053073
					CHANNELS 3 Xrotation Yrotation Zrotation
					End Site
					{
						OFFSET -0.635796 -10.170501 21.347494
					}
				}
			}
		}
	}
	JOINT RightUpLeg
	{
		OFFSET -9.964304 0.659676 -0.834694
		CHANNELS 3 Xrotation Yrotation Zrotation
		JOINT RightLowLeg
		{
			OFFSET -1.068542 -47.304138 -2.277935
			CHANNELS 3 Xrotation Yrotation Zrotation
			JOINT RightFoot
			{
				OFFSET 2.922852 -40.987537 -17.665161
				CHANNELS 3 Xrotation Yrotation Zrotation
				JOINT RightToe
				{
					OFFSET 2.162720 -22.520672 6.906414
					CHANNELS 3 Xrotation Yrotation Zrotation
					End Site
					{
						OFFSET -0.259880 -13.209164 19.621586
					}
				}
			}
		}
	}
}
MOTION
Frames: 11
Frame Time: 0.033333
0.838186 105.984543 -1.111725 -9.157229 5.993799 2.481754 1.070990 -4.777554 12.023407 6.904903 -12.735783 15.344010 -3.881292 4.996925 -2.633835 -5.488534 -22.208215 21.988119 -0.000004 -0.000002 0.000003 7.315596 -1.552191 -38.569566 15.838497 -7.098143 -79.446923 29.211056 -3.920118 -7.426215 0.000001 0.000000 0.000003 26.561385 -15.413346 75.123243 49.601244 -28.297996 78.039324 13.461534 -29.031200 -14.561748 -0.000001 -0.000003 -0.000001 16.920171 1.095395 -6.969725 -15.013772 3.620132 -2.185245 -13.880427 -3.920441 1.205347 -0.000002 -0.000001 0.000001 7.384395 0.388488 -2.356135 -1.267989 -4.981376 -3.024663 -15.265123 -2.017169 -1.646871 0.000000 -0.000001 0.000001 
0.834053 105.981262 -1.108407 -9.023466 5.900034 2.500925 1.160779 -4.776425 12.015294 6.766285 -12.694999 15.328712 -3.880201 4.783465 -2.688414 -5.992037 -21.838686 22.120707 -0.000002 -0.000001 0.000003 7.335274 -1.451278 -38.622510 15.853808 -7.198218 -79.233111 29.341820 -4.173359 -6.978035 -0.000001 -0.000002 0.000001 26.782686 -15.052900 75.008714 49.785300 -28.201253 77.828674 13.109259 -28.961354 -14.588482 -0.000000 -0.000007 -0.000005 16.750986 1.089473 -6.948054 -14.796913 3.638746 -2.237475 -14.047315 -3.938454 1.197765 -0.000002 -0.000001 0.000000 7.706013 0.376691 -2.345376 -1.991269 -5.033086 -3.127459 -15.138218 -1.962856 -1.625168 0.000002 -0.000000 0.000000 
0.825863 105.979218 -1.108027 -8.986984 5.919160 2.538333 1.110941 -4.754502 11.936547 6.766801 -12.757241 15.415066 -3.900294 4.499328 -2.819720 -6.442474 -21.551936 22.195077 -0.000002 -0.000002 0.000006 7.441965 -1.412649 -38.588342 15.648156 -7.704575 -79.147098 29.356962 -3.497046 -6.823744 0.000000 -0.000000 -0.000001 27.049958 -14.717015 74.665087 50.282179 -28.026665 77.696742 12.473935 -28.999361 -14.606211 -0.000004 -0.000007 -0.000006 17.064072 1.168211 -6.884600 -15.037771 3.659676 -2.292010 -14.193565 -4.114352 0.938357 -0.000002 0.000000 0.000002 8.067823 0.326075 -2.317561 -2.455479 -5.082424 -3.186244 -15.174778 -1.948244 -1.652539 -0.000000 -0.000001 0.000001 
0.809282 105.975784 -1.103915 -8.432224 5.986469 2.569659 0.973923 -4.753737 11.907231 5.859928 -12.561099 15.446785 -3.389481 4.173292 -3.050535 -6.396809 -21.636263 22.287430 -0.000000 -0.000001 -0.000000 7.621685 -1.230047 -38.525815 15.642277 -7.953205 -78.993972 29.469029 -3.344308 -6.796405 -0.000003 -0.000006 0.000001 27.133898 -14.708187 74.468856 50.473192 -28.132161 77.896190 12.310830 -28.979796 -14.937789 -0.000002 -0.000005 -0.000003 16.715447 1.142686 -6.887683 -15.098251 3.620455 -2.285427 -13.994777 -4.040176 1.078610 0.000000 -0.000000 0.000001 7.743674 0.366758 -2.338686 -2.648828 -5.128313 -3.195531 -15.309157 -2.177719 -1.723477 0.000001 -0.000000 0.000000 
0.782957 105.964867 -1.094853 -8.474421 5.863149 2.539296 1.755603 -4.758630 11.851794 4.897316 -12.352897 15.401146 -2.708272 4.058593 -3.032615 -6.534757 -21.694313 22.317857 -0.000000 -0.000001 0.000003 7.421145 -1.499519 -38.545145 15.570697 -7.854648 -78.802802 29.461642 -4.228059 -6.227412 -0.000000 -0.000006 0.000003 26.754008 -15.078459 74.467449 50.343671 -28.066926 77.979730 12.608467 -28.874041 -15.227371 -0.000001 -0.000009 -0.000003 16.533641 1.180674 -6.775452 -14.265443 3.624435 -2.336983 -14.533932 -4.051731 1.039564 -0.000003 0.000000 -0.000001 7.447340 0.350175 -2.228918 -1.679187 -4.949237 -3.184028 -15.600062 -2.337527 -1.701196 -0.000000 -0.000000 0.000000 
0.750961 105.957413 -1.082114 -8.356852 5.877920 2.518318 2.375302 -4.781549 11.838415 3.408906 -11.973206 15.345152 -1.942676 3.356441 -3.242346 -6.560552 -21.713527 22.367130 0.000002 -0.000001 -0.000000 7.443600 -1.349328 -38.422044 15.544769 -7.779359 -78.737608 29.309455 -4.403161 -6.363404 -0.000003 -0.000006 0.000003 26.842201 -14.758893 74.253036 50.245153 -28.068591 78.236894 12.758922 -28.535007 -15.364080 -0.000002 -0.000005 -0.000003 16.364034 1.148994 -6.656674 -14.091877 3.660983 -2.400141 -14.219653 -3.869779 1.250865 -0.000002 -0.000000 -0.000000 7.046966 0.390608 -2.150194 -1.139783 -4.856872 -3.097517 -15.626766 -2.429466 -1.645073 0.000002 0.000000 0.000000 
0.701519 105.947495 -1.069072 -8.309742 5.646050 2.373638 3.078473 -4.811202 11.829388 2.393785 -11.799066 15.389615 -1.442861 3.041018 -3.374573 -6.814607 -21.622624 22.438380 -0.000003 -0.000003 0.000002 7.484451 -1.293301 -38.102443 15.469398 -7.809361 -78.890597 29.345457 -4.763677 -5.871386 -0.000003 -0.000002 0.000001 26.959764 -14.527114 74.073429 50.188541 -28.133723 78.536404 12.637020 -28.416112 -16.219512 -0.000003 -0.000009 -0.000008 16.135917 1.194118 -6.384336 -13.728124 3.709328 -2.510801 -14.683631 -3.809331 1.316904 -0.000005 -0.000001 -0.000000 6.687629 0.370211 -1.944899 -0.264376 -4.708786 -3.107527 -15.954584 -2.490119 -1.577003 0.000002 0.000000 0.000000 
0.640574 105.929825 -1.058657 -7.380778 5.800416 2.302867 2.230907 -4.737877 11.796040 3.180662 -12.124784 15.549242 -1.927581 3.109364 -3.489843 -6.758446 -21.832759 22.311475 -0.000000 -0.000001 0.000006 7.578072 -0.986873 -37.702975 15.901338 -7.247872 -79.125091 29.669843 -4.981413 -6.391611 -0.000000 0.000001 0.000003 26.707643 -14.867976 73.878126 50.043020 -28.283916 79.112046 12.575191 -28.663039 -16.234728 -0.000002 -0.000007 -0.000004 15.163968 1.251588 -6.054324 -12.576337 3.785052 -2.698712 -14.887234 -3.875934 1.202546 0.000000 0.000000 -0.000000 5.818915 0.393405 -1.811774 0.587678 -4.578317 -2.940630 -15.663268 -2.813839 -1.774186 -0.000000 0.000000 -0.000001 
0.570919 105.911720 -1.048346 -7.118262 5.669850 2.199890 2.120834 -4.734742 11.768339 3.148201 -12.121797 15.581323 -1.857357 3.079555 -3.553300 -6.802411 -21.911558 22.378457 0.000002 -0.000001 -0.000000 7.533074 -1.548595 -37.417125 16.174660 -7.011697 -79.326944 29.745716 -5.522505 -5.783197 -0.000001 -0.000004 -0.000002 26.443050 -15.328693 73.812932 50.143335 -28.297419 79.383491 12.719176 -28.649601 -16.202476 0.000001 -0.000003 -0.000001 14.396205 1.208586 -5.734859 -11.232744 3.855833 -2.932445 -15.367531 -3.669438 1.540003 0.000002 -0.000001 0.000000 5.241583 0.437063 -1.659599 1.699738 -4.445558 -2.844510 -15.658222 -2.947519 -1.833154 0.000003 -0.000000 0.000000 
0.483383 105.876938 -1.031843 -6.564328 5.338015 2.176219 2.599976 -4.758991 11.748450 2.328827 -11.884556 15.520992 -1.442827 2.742526 -3.701084 -7.103579 -21.612327 22.259146 0.000001 0.000000 -0.000002 7.654610 -1.318462 -37.197941 16.013641 -6.959814 -79.349374 29.725786 -6.100541 -5.716372 -0.000002 -0.000002 0.000003 26.435752 -15.146756 73.595589 50.130009 -28.257531 79.495172 13.171662 -28.382288 -16.277922 0.000001 -0.000005 -0.000003 12.760239 1.096405 -5.544818 -9.190154 3.912180 -3.282444 -15.931404 -3.563026 1.768370 0.000000 -0.000001 0.000000 4.557407 0.527187 -1.613387 2.553016 -4.416775 -2.777995 -15.436805 -3.500368 -2.201471 0.000003 0.000000 -0.000001 
0.386721 105.802994 -1.011697 -6.496654 4.515363 2.402982 4.159064 -4.766380 11.529511 1.045266 -11.420291 15.327172 -0.464174 2.825966 -3.681532 -7.537401 -21.435968 22.287879 0.000001 -0.000001 0.000006 7.451443 -2.086753 -37.052123 15.597372 -7.211254 -79.758113 29.401949 -6.347033 -4.444440 0.000002 0.000000 0.000003 26.109585 -15.639286 73.513476 50.405703 -27.933095 79.477720 13.435160 -28.148712 -17.451932 -0.000001 -0.000007 -0.000005 10.556971 0.971986 -5.906935 -5.923452 3.869492 -3.386342 -17.095115 -3.139197 2.436031 -0.000002 0.000001 0.000000 3.270038 0.707870 -1.904397 5.125571 -4.032594 -2.549449 -15.233490 -4.589933 -2.695503 0.000002 -0.000001 0.000001 
